<svg xmlns="http://www.w3.org/2000/svg" viewBox="0 0 332.39 52.97"><defs><style>.cls-1{fill:#231815;}</style></defs><title>瞬間フローライターロゴ</title><g id="レイヤー_2" data-name="レイヤー 2"><g id="レイヤー_2-2" data-name="レイヤー 2"><path class="cls-1" d="M59.88,48.85c1,0,1.5-.11,1.6-.86s-.51-.92-1.26-1c-1-.16-2.25-.37-1.95-2.57s1.57-2.76,3.37-2.76a7.78,7.78,0,0,1,2,.19c.08,0,.09.14.09.27a3.54,3.54,0,0,1-.39,1.24s-.09,0-.15,0a12.31,12.31,0,0,0-1.32-.08c-1.32,0-1.54.79-1.57,1-.1.74.5.83,1.22.93,1,.15,2.31.43,2,2.76-.3,2.17-2.11,2.55-3.33,2.55A5.92,5.92,0,0,1,58,50.19a.31.31,0,0,1-.17-.33c0-.26.09-.45.13-.63.12-.36.26-.7.47-.7A4.4,4.4,0,0,0,59.88,48.85Z"/><path class="cls-1" d="M69.52,52.63c-.12.32-.59.34-1.08.34s-1,0-1-.34l.76-2,0-.16c-.63,0-1.42-.09-1.46-.51l-.59-6.41c0-.32.53-.33,1.06-.33s1,0,1,.33l.53,5.34h.06l2-5.34c.12-.32.58-.33,1.08-.33s1,0,1,.33Z"/><path class="cls-1" d="M77,47.14c-.2,1.36-.16,1.76.85,1.76.84,0,1-.59,1.1-1.44l.56-3.87c0-.33.52-.36,1-.36s1,0,1,.36l-.92,6.52c0,.34-.53.37-1,.37s-1,0-1-.37l0-.16h-.1a2.32,2.32,0,0,1-1.64.59c-2.1,0-2.18-1.25-2-2.3l.66-4.65c0-.33.53-.36,1.06-.36s1,0,.95.36Z"/><path class="cls-1" d="M88.11,46.57c.19-1.37.16-1.76-.85-1.76-.84,0-1,.59-1.12,1.43l-.54,3.87c0,.34-.53.37-1,.37s-1,0-1-.37l.93-6.52c0-.33.52-.36,1-.36s1,0,1,.36l0,.16h.1a2.29,2.29,0,0,1,1.64-.58c2.09,0,2.18,1.24,2,2.3l-.65,4.64c-.05.34-.53.37-1.06.37s-1,0-1-.37Z"/><path class="cls-1" d="M93,48.4c-.22,0-.15-.47-.1-.78s.1-.77.32-.77h3.85c.22,0,.16.43.12.77s-.12.78-.34.78Z"/><path class="cls-1" d="M104.22,43.45c.19-.22.6-.22,1.14-.22s1.11,0,1,.38l-1.55,2v.18L106,50.14c0,.32-.38.34-.91.34s-1,0-1.14-.32l-.79-2.7H103l-.89,1.14-.21,1.51c0,.34-.53.37-1.05.37s-1,0-1-.37l1.2-8.55c0-.34.55-.37,1.06-.37s1,0,.95.37l-.51,3.64h.12Z"/><path class="cls-1" d="M109.66,44.28a2.06,2.06,0,0,1,0-.63.3.3,0,0,1,.2-.29,7.06,7.06,0,0,1,1.78-.19c2.75,0,2.84,1.82,2.59,3.56l-.5,3.54c0,.19-.44.21-1,.21a.77.77,0,0,1-.54-.13l-.28-.28h-.09a2.27,2.27,0,0,1-1.54.47c-1.45,0-2.12-.69-1.93-2.1a2.33,2.33,0,0,1,2.46-2.2,3,3,0,0,1,1.41.28h.13c.22-1.55-.6-1.71-1.56-1.71a4.06,4.06,0,0,0-.79.13C109.72,44.94,109.69,44.53,109.66,44.28ZM112,48.66l.13-.91h-.48c-1,0-1.18.3-1.22.62s0,.64.57.64A1.62,1.62,0,0,0,112,48.66Z"/><path class="cls-1" d="M121.19,46.57c.19-1.37.16-1.76-.85-1.76-.83,0-1,.59-1.11,1.43l-.55,3.87c0,.34-.52.37-1.05.37s-1,0-.95-.37l.92-6.52c0-.33.53-.36,1-.36s1,0,1,.36l0,.16h.1a2.31,2.31,0,0,1,1.64-.58c2.1,0,2.18,1.24,2,2.3l-.66,4.64c0,.34-.53.37-1.06.37s-1,0-1-.37Z"/><path class="cls-1" d="M131.85,50.11c0,.34-.53.37-1,.37s-1,0-1-.37l1.13-8c.06-.34.54-.37,1.06-.37h3.63c.26,0,.23.39.18.82s-.15.82-.41.82H132.8l-.32,2.33h2.08c.26,0,.24.39.18.82s-.15.82-.41.82h-2.08Z"/><path class="cls-1" d="M138.72,41.56c0-.34.54-.37,1.05-.37s1,0,1,.37l-1.2,8.55c-.05.34-.53.37-1.06.37s-1,0-.95-.37Z"/><path class="cls-1" d="M142.73,46.86c.24-1.61,1.17-3.69,3.65-3.69s2.83,2.08,2.59,3.69-1.16,3.68-3.63,3.68S142.51,48.46,142.73,46.86Zm4.28,0c.15-1,.06-2-.87-2s-1.3,1-1.45,2,0,2,.88,2S146.88,47.87,147,46.86Z"/><path class="cls-1" d="M155.21,48.59,154.55,50c-.19.42-.8.47-1.46.47s-1.35-.06-1.4-.47l0-6.37c.06-.37.5-.41,1.06-.41s.95,0,.94.38l-.15,4.72h.12l1.59-4.72c.11-.31.44-.35.82-.35s.69,0,.71.35l.28,4.72h.11l1.18-4.72c.1-.37.58-.38,1.05-.38s1,0,.94.41L158.49,50c-.16.41-.83.47-1.51.47s-1.27,0-1.35-.47l-.24-1.42Z"/><path class="cls-1" d="M163.21,41.56c0-.34.54-.37,1-.37s1,0,1,.37L164,50.11c0,.34-.53.37-1,.37s-1,0-1-.37Z"/><path class="cls-1" d="M168,43.59c0-.33.53-.36,1-.36s1,0,1,.36l-.93,6.52c0,.34-.52.37-1.05.37s-1,0-.95-.37Zm1.35-2.5c.58,0,1.08.09,1,.86s-.63.88-1.21.88-1.07-.09-1-.88S168.74,41.09,169.33,41.09Z"/><path class="cls-1" d="M172.42,52.46a3.49,3.49,0,0,1,.16-.78c.13-.35.28-.51.48-.51a8.76,8.76,0,0,0,1.36.16c.69,0,1.38,0,1.54-1.14l.06-.36h-.1a2.29,2.29,0,0,1-1.67.52c-1.73,0-2.17-1-2-2.41l.31-2.19a2.66,2.66,0,0,1,2.8-2.58,1.58,1.58,0,0,1,1.4.51h.1l0-.09c0-.33.53-.36,1-.36s1,0,1,.36L178,50.26A3,3,0,0,1,174.69,53a12.37,12.37,0,0,1-2.16-.19C172.43,52.73,172.39,52.62,172.42,52.46Zm4.1-6.22c.12-.84.13-1.43-.7-1.43-1,0-1.16.39-1.35,1.76l-.06.39c-.19,1.35-.15,1.75.86,1.75.84,0,1-.55,1.1-1.43Z"/><path class="cls-1" d="M185.54,46.57c.19-1.37.16-1.76-.85-1.76-.83,0-1,.59-1.11,1.43L183,50.11c0,.34-.53.37-1.06.37s-1,0-.95-.37l1.2-8.55c0-.34.54-.37,1.05-.37s1,0,1,.37l-.31,2.19h.1a2.31,2.31,0,0,1,1.64-.58c2.1,0,2.18,1.24,2,2.3l-.66,4.64c-.05.34-.53.37-1.06.37s-1,0-1-.37Z"/><path class="cls-1" d="M194.18,49.64c-.06.41-.12.84-.37.84h-1c-2.24,0-2-1.8-1.67-4.09l.21-1.52h-1.06c-.26,0-.23-.4-.17-.82s.14-.82.41-.82h1l.24-1.67c0-.34.54-.37,1-.37s1,0,1,.37l-.23,1.67h1.17c.26,0,.24.39.18.82s-.15.82-.41.82h-1.18l-.3,2.25c-.24,1.6,0,1.76,1,1.78C194.28,48.9,194.22,49.25,194.18,49.64Z"/><path class="cls-1" d="M200.14,50.54c-2,0-3.56-.57-3.12-3.68.27-1.86,1.06-3.69,3.53-3.69s2.77,1.67,2.51,3.47l-.11.72c0,.14-.06.29-.16.29h-3.86l0,.06c-.1.69.26,1.19,1.42,1.19a5,5,0,0,0,1.45-.18l.12,0c.16,0,.2.31.23.65a2.05,2.05,0,0,1,0,.49.47.47,0,0,1-.25.36A3.85,3.85,0,0,1,200.14,50.54Zm1-4.46c0-1-.33-1.27-.82-1.27s-1,.29-1.18,1.27Z"/><path class="cls-1" d="M209.56,45c-1.35,0-1.72,1.4-1.79,2l-.44,3.1c0,.34-.53.37-1.05.37s-1,0-1-.37l.93-6.52c0-.33.53-.36,1-.36s1,0,1,.36l-.07.5h.07a3.06,3.06,0,0,1,2.17-.92,1.77,1.77,0,0,1,.56.06.36.36,0,0,1,.17.41c0,.32-.46,1.45-.82,1.51A3.31,3.31,0,0,0,209.56,45Z"/><path class="cls-1" d="M56.51,37.61V9.78h8.94v25a2.54,2.54,0,0,1-2.87,2.87ZM62,13.32h-1.9V17.7H62Zm0,7.88h-1.9v4.66H62Zm0,8.16h-1.9V34.1h1.17a.64.64,0,0,0,.73-.72Zm5.14,8.25-.64-3.26H69a.94.94,0,0,0,.91-.58l.3-.94h-.58c-1,0-1.54-.42-1.63-1.29l-.45-2.3H66.6L66,26h.93c.31,0,.46-.19.49-.58l.69-3.35h3l-.3,1.33h4V29.3L73,36.19c-.43,1-1.66,1.42-3.69,1.42Zm.09-24.29-.52-3.05H79.11a.68.68,0,0,0,.63-.28A.72.72,0,0,0,80,9.42V9.06h4.11v1.87a2.4,2.4,0,0,1-.64,1.57,2.23,2.23,0,0,1-1.75.82ZM79.9,21.57V20.21H71.13v1.36H66.9V17.06h1.27l-.84-2.44H71l.85,2.44H74l-.81-2.44h3.62l.82,2.44h1.57l.85-2.56h3.86l-.84,2.56h1v4.51Zm-7.71,5.07H70.11v.3a3.37,3.37,0,0,1-.4,1.63L70,29.9c0,.31.15.49.39.49H71Zm7.16,11.21V36.31h-4.2V32.8h1V27.12h-.69V23.59h3.86v-1.3h4.11v1.3h1v3.53h-1V32.8H84.7v3.51H83.46v1.54Zm0-10.73h-1V32.8h1Z"/><path class="cls-1" d="M89.8,37.85V9.78h12.6v9.49a2.56,2.56,0,0,1-2.87,2.9H94.15V37.85Zm8.28-25H94.15v1.88h3.93Zm0,4.32H94.15v2h3.18c.51,0,.75-.24.75-.73ZM96.84,37.28V24h13.3V34.38a2.57,2.57,0,0,1-2.87,2.9ZM105.94,27H101v2.21h4.9Zm0,4.9H101v2.32h4.14c.52,0,.76-.24.76-.72Zm5.59,5.71-.64-3.51h1.21a.64.64,0,0,0,.73-.72V22.17H104.7V9.78h12.48v25a2.57,2.57,0,0,1-2.9,2.87Zm1.3-24.78H109v1.88h3.81Zm0,4.32H109v2h3.81Z"/><path class="cls-1" d="M126.32,37.37l-2.75-3.75L140.24,28a1.63,1.63,0,0,0,1.12-1.72V17.67c0-.79-.39-1.18-1.06-1.18h-16a3,3,0,0,1-3.05-3.23V11.44h3.53c0,.88.31,1.09,1,1.09h16.5a3.4,3.4,0,0,1,3.44,3.33v11c0,2.45-1.12,4.05-3.71,5Z"/><path class="cls-1" d="M152.9,35.49V12.8h20.82a3.44,3.44,0,0,1,3.68,3.39V32.11a3.41,3.41,0,0,1-3.65,3.38Zm20-17.46c0-.94-.48-1.24-1.15-1.24H157.37V31.51h14.38c.88,0,1.18-.49,1.18-1.24Z"/><path class="cls-1" d="M187.4,25.67a3,3,0,0,1-3.05-3.26V20.24h3.54c0,.87.3,1.08,1,1.08H210v4.35Z"/><path class="cls-1" d="M220.64,37.52l-2.21-3.93,16.65-3.66a1.36,1.36,0,0,0,1.15-1.42V23.44c0-.73-.34-1.15-1.09-1.15H218.52A3.07,3.07,0,0,1,215.47,19V17.31H219c0,.87.31,1.11,1,1.11H237a3.38,3.38,0,0,1,3.6,3.27v7.46a4.48,4.48,0,0,1-3.72,4.56Zm-2.72-22.93,0-3.87h20.72v3.87Z"/><path class="cls-1" d="M258.92,37.22v-15l-10.28,2.66-2.44-4L267,15.79a1.22,1.22,0,0,0,1.06-1.26v-4.2h4.47v4.89a4.11,4.11,0,0,1-3.08,4.29l-5.95,1.54V37.22Z"/><path class="cls-1" d="M281,37.52l-2.6-3.81,16.35-5.2A1.43,1.43,0,0,0,295.9,27v-.75l-12.18-2.66,1.78-3.69,10.4,2.3V16.58c0-.91-.43-1.27-1.21-1.27h-8.1a1.45,1.45,0,0,0-1.39,1c-.63,1.3-3.44,6.58-4,7.79a3.42,3.42,0,0,1-3.38,2.39h-2.21l-.57-3.6h1.45c.39,0,.69-.24,1-.78.66-1.36,3.2-6.13,4.26-8.28a3.64,3.64,0,0,1,3.62-2.36h11.3a3.37,3.37,0,0,1,3.6,3.21v13.2a4.31,4.31,0,0,1-3.3,4.41Z"/><path class="cls-1" d="M309.76,25.67a3,3,0,0,1-3.05-3.26V20.24h3.54c0,.87.3,1.08,1,1.08h21.15v4.35Z"/><polygon class="cls-1" points="40.74 42.41 36.14 42.41 40 39.98 44.6 39.98 40.74 42.41"/><polygon class="cls-1" points="36.8 9.51 24.48 18.4 9.04 0 9.51 12.63 18.4 24.95 0 40.38 12.63 39.91 17.32 36.53 11.12 36.53 14.98 34.1 20.68 34.1 24.95 31.03 40.38 49.42 39.91 36.8 34.82 29.73 28.12 29.73 31.98 27.3 33.06 27.3 31.03 24.48 40.59 16.46 35.1 16.46 38.96 14.03 43.48 14.03 49.42 9.04 36.8 9.51"/><polygon class="cls-1" points="41.89 20.33 31.12 20.33 34.98 17.9 45.75 17.9 41.89 20.33"/><polygon class="cls-1" points="40.74 32.95 29.97 32.95 33.83 30.52 44.6 30.52 40.74 32.95"/><polygon class="cls-1" points="22.09 11 11.32 11 15.18 8.57 25.94 8.57 22.09 11"/></g></g></svg>